<?xml version="1.0" encoding="utf-8"?>
<!-- Generator: Adobe Illustrator 21.1.0, SVG Export Plug-In . SVG Version: 6.00 Build 0)  -->
<svg version="1.1" id="Слой_1" xmlns="http://www.w3.org/2000/svg" xmlns:xlink="http://www.w3.org/1999/xlink" x="0px" y="0px"
	 viewBox="0 0 22 22" style="enable-background:new 0 0 22 22;" xml:space="preserve">
<path d="M11,19.6C11,19.6,11,19.6,11,19.6c-0.4,0-0.8-0.1-1.1-0.4c-0.7-0.6-1.4-1.2-2-1.7c-1.6-1.3-3.2-2.7-4.5-4.3
	c-1.2-1.3-1.9-3-1.9-4.8c0-1.6,0.5-3.1,1.6-4.3c0.5-0.6,1.1-1,1.8-1.3C5.5,2.5,6.2,2.4,7,2.4c1.2,0,2.3,0.4,3.2,1.1
	C10.5,3.7,10.8,4,11,4.2c0.2-0.3,0.5-0.5,0.8-0.7c0.9-0.7,2.1-1.1,3.2-1.1c0.8,0,1.5,0.1,2.2,0.5c0.7,0.3,1.3,0.7,1.8,1.3
	c1.1,1.2,1.6,2.7,1.6,4.3c0,1.8-0.7,3.5-1.9,4.8c-1.4,1.5-2.9,3-4.5,4.3c-0.6,0.5-1.3,1.1-2,1.7C11.8,19.5,11.4,19.6,11,19.6z
	 M7,3.6C6.4,3.6,5.8,3.7,5.3,4c-0.5,0.2-1,0.6-1.4,1C3,5.9,2.6,7.1,2.6,8.4c0,1.5,0.6,2.9,1.6,4c1.4,1.5,2.8,2.9,4.4,4.1
	c0.6,0.6,1.3,1.1,2.1,1.8c0.1,0.1,0.2,0.1,0.3,0.1h0c0,0,0,0,0,0c0.1,0,0.2,0,0.3-0.1c0.7-0.6,1.4-1.2,2-1.7
	c1.6-1.3,3.1-2.7,4.5-4.2c1-1.1,1.6-2.5,1.6-4c0-1.3-0.4-2.5-1.3-3.4c-0.4-0.4-0.9-0.8-1.4-1S15.6,3.6,15,3.6c0,0,0,0,0,0
	c-0.9,0-1.8,0.3-2.4,0.8c-0.4,0.3-0.7,0.7-1,1.1L11,6.2l-0.5-0.7c-0.3-0.4-0.6-0.8-1-1.1C8.8,3.9,7.9,3.6,7,3.6C7,3.6,7,3.6,7,3.6z"
	/>
</svg>
