<?xml version="1.0" encoding="utf-8"?>
<!-- Generator: Adobe Illustrator 21.1.0, SVG Export Plug-In . SVG Version: 6.00 Build 0)  -->
<svg version="1.1" id="Слой_1" xmlns="http://www.w3.org/2000/svg" xmlns:xlink="http://www.w3.org/1999/xlink" x="0px" y="0px"
	 viewBox="0 0 22 22" style="enable-background:new 0 0 22 22;" xml:space="preserve">
<style type="text/css">
	.st0{clip-path:url(#SVGID_2_);}
</style>
<g>
	<defs>
		<rect id="SVGID_1_" width="22" height="22"/>
	</defs>
	<clipPath id="SVGID_2_">
		<use xlink:href="#SVGID_1_"  style="overflow:visible;"/>
	</clipPath>
	<g class="st0">
		<path d="M11,32c-5,0-9-4-9-9s4-9,9-9c5,0,9,4,9,9S16,32,11,32z M11,15.2c-4.3,0-7.8,3.5-7.8,7.8s3.5,7.8,7.8,7.8s7.8-3.5,7.8-7.8
			S15.3,15.2,11,15.2z"/>
		<path d="M11,11c-2.2,0-4-1.8-4-4s1.8-4,4-4c2.2,0,4,1.8,4,4S13.2,11,11,11z M11,4.2C9.5,4.2,8.2,5.5,8.2,7S9.5,9.8,11,9.8
			s2.8-1.3,2.8-2.8S12.5,4.2,11,4.2z"/>
	</g>
</g>
</svg>
