<?xml version="1.0" encoding="utf-8"?>
<!-- Generator: Adobe Illustrator 21.1.0, SVG Export Plug-In . SVG Version: 6.00 Build 0)  -->
<svg version="1.1" id="Слой_1" xmlns="http://www.w3.org/2000/svg" xmlns:xlink="http://www.w3.org/1999/xlink" x="0px" y="0px"
	 viewBox="0 0 20 20" style="enable-background:new 0 0 20 20;" xml:space="preserve">
<style type="text/css">
	.st0{fill:#1F2020;}
</style>
<path class="st0" d="M9.2,16.5c-4.1,0-7.4-3.3-7.4-7.4s3.3-7.4,7.4-7.4s7.4,3.3,7.4,7.4S13.2,16.5,9.2,16.5z M9.2,3.2
	c-3.3,0-6,2.7-6,6c0,3.3,2.7,6,6,6c3.3,0,6-2.7,6-6C15.1,5.9,12.5,3.2,9.2,3.2z"/>
<path class="st0" d="M17.5,18.2c-0.2,0-0.4-0.1-0.5-0.2l-3.6-3.6c-0.3-0.3-0.3-0.7,0-1s0.7-0.3,1,0L18,17c0.3,0.3,0.3,0.7,0,1
	C17.9,18.1,17.7,18.2,17.5,18.2z"/>
</svg>
